<svg xmlns="http://www.w3.org/2000/svg" width="10516.5" height="7302.9" viewBox="0 0 10516.5 7302.9"><circle fill="#FCFD37" cx="5258.3" cy="2350.1" r="1669.9"/><path fill="#D7DDDC" d="M4442 3174.8l-366.5 293.1 389.6 842.9 1822.6-109.3 428.6-439.8-313.5-265.7-336.3-321.2z"/><path fill="#85BCBC" d="M6272.7 5037.7l268.7-763.3 209 545.2z"/><path fill="#29545F" d="M6750.4 5401.2v-581.6l-477.7 218.1z"/><path fill="#569BAC" d="M7257.9 5292.1l-507.5-472.5v581.6z"/><path fill="#336778" d="M7287.8 4746.9l-537.4 72.7 507.5 472.5z"/><path fill="#78B6B7" d="M6923.5 3937.4l364.3 809.5-537.4 72.7z"/><path fill="#9EC2C1" d="M6923.5 3937.4l-382.1 337 209 545.2z"/><path fill="#75B5B8" d="M5974.1 4528.8l567.3-254.4-268.7 763.3z"/><path fill="#8DBDBA" d="M5974.1 4528.8l89.6-654.6 477.7 400.2z"/><path fill="#73B4B7" d="M5854.7 5183.1l119.4-654.3 298.6 508.9z"/><path fill="#29545F" d="M6183.1 5837.4l89.6-799.7 477.7 363.5z"/><path fill="#02303A" d="M6183.1 5837.4l89.6-799.7-418 145.4z"/><path fill="#00303C" d="M6780.2 6164.5l-29.8-763.3-567.3 436.2z"/><path fill="#00242D" d="M7347.5 5982.8l-597.1-581.6 29.8 763.3z"/><path fill="#29545F" d="M7347.5 5982.8l-89.6-690.7-507.5 109.1z"/><path fill="#00303C" d="M7944.1 6347.6l-686.2-1055.5 89.6 690.7z"/><path fill="#29545F" d="M7732.9 5019.5l-475 272.6 686.2 1055.5z"/><path fill="#8DBDBA" d="M7732.9 5019.5l-445.1-272.6-29.9 545.2z"/><path fill="#6CAEB4" d="M7543.3 4456.1l-255.5 290.8 445.1 272.6z"/><path fill="#78B6B7" d="M7543.3 4456.1l-619.8-518.7 364.3 809.5z"/><path fill="#8DBDBA" d="M5675.6 4274.4l388.1-400.2-89.6 654.6z"/><path fill="#63AAB1" d="M5698 4746.9l276.1-218.1-119.4 654.3z"/><path fill="#8DBDBA" d="M5698 4746.9l-22.4-472.5 298.5 254.4z"/><path fill="#00242D" d="M5675.6 5692l179.1-508.9 328.4 654.3z"/><path fill="#00303C" d="M5833.2 6347.6L5675.6 5692l507.5 145.4-349.9 510.2z"/><path fill="#00242D" d="M6601.1 6347.6l-418-510.2 597.1 327.1z"/><path fill="#00181E" d="M5833.2 6347.6l349.9-510.2 418 510.2h-20.2z"/><path fill="#00303C" d="M7228 6347.6l119.5-364.8-567.3 181.7z"/><path fill="#00181E" d="M7228 6347.6l-447.8-183.1-179.1 183.1zm716.1 0l-596.6-364.8 596.6 364.8z"/><path fill="#00242D" d="M7944.1 6347.6H7228l119.5-364.8z"/><path fill="#559CAA" d="M7922.4 4274.4l-379.1 181.7 189.6 563.4z"/><path fill="#80BBB8" d="M5268.4 4456.1l407.2-181.7 22.4 472.5z"/><path fill="#78B6B7" d="M5285.7 5085.8l-17.3-629.7 429.6 290.8z"/><path fill="#00303C" d="M5541.2 5401.2l313.5-218.1-179.1 508.9z"/><path fill="#549DAC" d="M5541.2 5401.2l156.8-654.3 156.7 436.2z"/><path fill="#4C95A7" d="M5541.2 5401.2l156.8-654.3-412.3 338.9z"/><path fill="#00303C" d="M5306.9 6055.4l234.3-654.2 134.4 290.8z"/><path fill="#00242D" d="M5833.2 6347.6l-526.3-292.2 368.7-363.4z"/><path fill="#00181E" d="M5833.2 6347.6h-418l-108.3-292.2z"/><path fill="#29545F" d="M5083.1 5514.3l458.1-113.1-234.3 654.2z"/><path fill="#00303C" d="M5285.7 5085.8l255.5 315.4-458.1 113.1z"/><path fill="#3E7899" d="M5285.7 5085.8l255.5 315.4-255.5-315.4z"/><path fill="#69B1B3" d="M5268.4 4456.1l17.3 629.7z"/><path fill="#ACC4C2" d="M5268.3 3874.6l407.3 399.8-407.2 181.7z"/><path fill="#85BCBC" d="M9497.1 5037.7l-268.7-581.6-209 363.5z"/><path fill="#29545F" d="M9019.4 5401.2v-581.6l477.7 218.1z"/><path fill="#569BAC" d="M8511.8 5292.1l507.6-472.5v581.6z"/><path fill="#336778" d="M8482 4746.9l537.4 72.7-507.6 472.5z"/><path fill="#B1C5C4" d="M8691 4092.7l-209 654.2 537.4 72.7z"/><path fill="#9EC2C1" d="M8691 4092.7l537.4 363.4-209 363.5z"/><path fill="#75B5B8" d="M9795.6 4528.8l-567.2-72.7 268.7 581.6z"/><path fill="#B1C5C4" d="M9795.6 4528.8L9481.9 4020l-253.5 436.1z"/><path fill="#73B4B7" d="M9915.1 5183.1l-119.5-654.3-298.5 508.9z"/><path fill="#29545F" d="M9586.6 5837.4l-89.5-799.7-477.7 363.5z"/><path fill="#00303C" d="M9586.6 5837.4l-89.5-799.7 418 145.4zm-597.1 327.1l29.9-763.3 567.2 436.2z"/><path fill="#00242D" d="M8422.3 5982.8l597.1-581.6-29.9 763.3z"/><path fill="#29545F" d="M8422.3 5982.8l89.5-690.7 507.6 109.1z"/><path fill="#00303C" d="M8093.9 5692l417.9-399.9-89.5 690.7z"/><path fill="#00242D" d="M7732.9 5019.5l778.9 272.6-417.9 399.9z"/><path fill="#29545F" d="M7732.9 5019.5l749.1-272.6 29.8 545.2z"/><path fill="#6CAEB4" d="M7922.4 4274.4l559.6 472.5-749.1 272.6z"/><path fill="#A0C2C1" d="M7922.4 4274.4l768.6-181.7-209 654.2z"/><path fill="#A9C4C2" d="M10094.2 4274.4L9481.9 4020l313.7 508.8z"/><path fill="#63AAB1" d="M10071.8 4746.9l-276.2-218.1 119.5 654.3z"/><path fill="#8DBDBA" d="M10071.8 4746.9l22.4-472.5-298.6 254.4z"/><path fill="#00242D" d="M10094.2 5692l-179.1-508.9-328.5 654.3z"/><path fill="#00303C" d="M9932.5 6347.6l161.7-655.6-507.6 145.4 288.5 510.2z"/><path fill="#00242D" d="M9168.7 6347.6l417.9-510.2-597.1 327.1z"/><path fill="#00181E" d="M9875.1 6347.6l-288.5-510.2-417.9 510.2h20.2z"/><path fill="#00303C" d="M8541.7 6347.6l-119.4-364.8 567.2 181.7z"/><path fill="#00181E" d="M8541.7 6347.6l447.8-183.1 179.2 183.1zm-597.6 0l478.2-364.8-328.4-290.8z"/><path fill="#00242D" d="M7944.1 6347.6h597.6l-119.4-364.8zm0 0l-211.2-1328.1 361 672.5z"/><path fill="#80BBB8" d="M10392.7 4347.1l-298.5-72.7-22.4 472.5z"/><path fill="#78B6B7" d="M10362.9 5037.7l29.8-690.6-320.9 399.8z"/><path fill="#00303C" d="M10228.5 5401.2l-313.4-218.1 179.1 508.9z"/><path fill="#549DAC" d="M10228.5 5401.2l-156.7-654.3-156.7 436.2z"/><path fill="#4C95A7" d="M10228.5 5401.2l-156.7-654.3 291.1 290.8z"/><path fill="#00303C" d="M10362.9 6055.4l-134.4-654.2-134.3 290.8z"/><path fill="#00242D" d="M9932.5 6347.6h69.7l360.7-292.2-268.7-363.4z"/><path fill="#00181E" d="M10002.2 6347.6h380.7l-20-292.2z"/><path fill="#00303C" d="M10516.5 6347.6l-153.6-292.2 20 292.2h133.6z"/><path fill="#29545F" d="M10516.5 5740.7l-288-339.5 134.4 654.2 153.6-235.9z"/><path fill="#00181E" d="M10516.5 5819.5l-153.6 235.9 153.6 292.2z"/><path fill="#00303C" d="M10516.5 5255.1l-288 146.1 288 339.5z"/><path fill="#3E7899" d="M10516.5 5060.6l-153.6-22.9-134.4 363.5 288-146.1z"/><path fill="#69B1B3" d="M10516.5 4477.4l-153.6 560.3 153.6 22.9z"/><path fill="#61A9B0" d="M10516.5 4347.1h-123.8l-29.8 690.6 153.6-560.3z"/><path fill="#A6C4C1" d="M10516.5 4035v-160.4l-123.8 472.5h123.8z"/><path fill="#ACC4C2" d="M10516.5 3874.6l-422.3 399.8 298.5 72.7z"/><path fill="#85BCBC" d="M1044.8 5037.7l268.7-581.6 209 363.5z"/><path fill="#29545F" d="M1522.5 5401.2v-581.6l-477.7 218.1z"/><path fill="#569BAC" d="M2030 5292.1l-507.5-472.5v581.6z"/><path fill="#336778" d="M2059.9 4746.9l-537.4 72.7 507.5 472.5z"/><path fill="#A6C4C2" d="M1850.9 4092.7l209 654.2-537.4 72.7z"/><path fill="#9EC2C1" d="M1850.9 4092.7l-537.4 363.4 209 363.5z"/><path fill="#75B5B8" d="M746.2 4528.8l567.3-72.7-268.7 581.6z"/><path fill="#B1C5C4" d="M746.2 4528.8l283.7-508.8 283.6 436.1z"/><path fill="#73B4B7" d="M626.8 5183.1l119.4-654.3 298.6 508.9z"/><path fill="#29545F" d="M955.2 5837.4l89.6-799.7 477.7 363.5z"/><path fill="#00303C" d="M955.2 5837.4l89.6-799.7-418 145.4zm597.2 327.1l-29.9-763.3-567.3 436.2z"/><path fill="#00242D" d="M2119.6 5982.8l-597.1-581.6 29.9 763.3z"/><path fill="#29545F" d="M2119.6 5982.8l-89.6-690.7-507.5 109.1z"/><path fill="#00303C" d="M2718.4 6347.6L2030 5292.1l89.6 690.7z"/><path fill="#29545F" d="M2507.6 5019.5L2030 5292.1l688.4 1055.5z"/><path fill="#8DBDBA" d="M2507.6 5019.5l-447.7-272.6-29.9 545.2z"/><path fill="#6CAEB4" d="M2315.5 4456.1l-255.6 290.8 447.7 272.6z"/><path fill="#A0C2C1" d="M2315.5 4456.1l-464.6-363.4 209 654.2z"/><path fill="#A9C4C2" d="M447.7 4274.4l582.2-254.4-283.7 508.8z"/><path fill="#63AAB1" d="M470.1 4746.9l276.1-218.1-119.4 654.3z"/><path fill="#8DBDBA" d="M470.1 4746.9l-22.4-472.5 298.5 254.4z"/><path fill="#00242D" d="M447.7 5692l179.1-508.9 328.4 654.3z"/><path fill="#00303C" d="M605.3 6347.6L447.7 5692l507.5 145.4-349.9 510.2z"/><path fill="#00242D" d="M1368.2 6347.6l-413-510.2 597.2 327.1z"/><path fill="#00181E" d="M605.3 6347.6l349.9-510.2 413 510.2z"/><path fill="#00303C" d="M2000.2 6347.6l119.4-364.8-567.2 181.7z"/><path fill="#00181E" d="M2000.2 6347.6l-447.8-183.1-184.2 183.1zm718.2 0l-598.8-364.8 598.8 364.8z"/><path fill="#00242D" d="M2718.4 6347.6h-718.2l119.4-364.8z"/><path fill="#559CAA" d="M2698 4274.4l-382.5 181.7 192.1 563.4z"/><path fill="#80BBB8" d="M149.1 4347.1l298.6-72.7 22.4 472.5z"/><path fill="#78B6B7" d="M179 5037.7l-29.9-690.6 321 399.8z"/><path fill="#00303C" d="M313.4 5401.2l313.4-218.1L447.7 5692z"/><path fill="#549DAC" d="M313.4 5401.2l156.7-654.3 156.7 436.2z"/><path fill="#4C95A7" d="M313.4 5401.2l156.7-654.3L179 5037.7z"/><path fill="#00303C" d="M179 6055.4l134.4-654.2L447.7 5692z"/><path fill="#00242D" d="M605.3 6347.6L179 6055.4 447.7 5692z"/><path fill="#00181E" d="M605.3 6347.6H159l20-292.2z"/><path fill="#00303C" d="M0 6347.6l179-292.2-20 292.2H0z"/><path fill="#29545F" d="M0 5740.7l313.4-339.5L179 6055.4 0 5819.5z"/><path fill="#00181E" d="M0 5819.5l179 235.9L0 6347.6z"/><path fill="#00303C" d="M0 5255.1l313.4 146.1L0 5740.7z"/><path fill="#3E7899" d="M0 5060.6l179-22.9 134.4 363.5L0 5255.1z"/><path fill="#69B1B3" d="M0 4477.4l179 560.3-179 22.9z"/><path fill="#61A9B0" d="M0 4347.1h149.1l29.9 690.6L0 4477.4z"/><path fill="#A6C4C1" d="M0 4035v-160.4l149.1 472.5H0z"/><path fill="#ACC4C2" d="M0 3874.6l447.7 399.8-298.6 72.7z"/><path fill="#85BCBC" d="M4274.5 5037.7l-268.7-763.3-208.9 545.2z"/><path fill="#29545F" d="M3796.9 5401.2v-581.6l477.6 218.1z"/><path fill="#569BAC" d="M3289.3 5292.1l507.6-472.5v581.6z"/><path fill="#336778" d="M3259.4 4746.9l537.5 72.7-507.6 472.5z"/><path fill="#85BCBC" d="M3369.5 3874.6l-110.1 872.3 537.5 72.7z"/><path fill="#78B6B7" d="M3369.5 3874.6l636.3 399.8-208.9 545.2z"/><path fill="#75B5B8" d="M4573.1 4528.8l-567.3-254.4 268.7 763.3z"/><path fill="#8DBDBA" d="M4573.1 4528.8l-93.1-654.6-474.2 400.2z"/><path fill="#73B4B7" d="M4692.5 5183.1l-119.4-654.3-298.6 508.9z"/><path fill="#29545F" d="M4364.1 5837.4l-89.6-799.7-477.6 363.5z"/><path fill="#00303C" d="M4364.1 5837.4l-89.6-799.7 418 145.4zM3767 6164.5l29.9-763.3 567.2 436.2z"/><path fill="#00242D" d="M3199.7 5982.8l597.2-581.6-29.9 763.3z"/><path fill="#29545F" d="M3199.7 5982.8l89.6-690.7 507.6 109.1z"/><path fill="#00303C" d="M2871.3 5692l418-399.9-89.6 690.7z"/><path fill="#00242D" d="M2507.6 5019.5l781.7 272.6-418 399.9z"/><path fill="#29545F" d="M2507.6 5019.5l751.8-272.6 29.9 545.2z"/><path fill="#6CAEB4" d="M2698 4274.4l561.4 472.5-751.8 272.6z"/><path fill="#78B6B7" d="M2698 4274.4l671.5-399.8-110.1 872.3z"/><path fill="#8DBDBA" d="M4867.9 4262.3L4480 3874.2l93.1 654.6z"/><path fill="#63AAB1" d="M4849.3 4746.9l-276.2-218.1 119.4 654.3z"/><path fill="#8DBDBA" d="M4849.3 4746.9l18.6-484.6-294.8 266.5z"/><path fill="#00242D" d="M4871.6 5692l-179.1-508.9-328.4 654.3z"/><path fill="#00303C" d="M4714.1 6347.6l157.5-655.6-507.5 145.4 350 510.2z"/><path fill="#00242D" d="M3946.1 6347.6l418-510.2-597.1 327.1z"/><path fill="#00181E" d="M4714.1 6347.6l-350-510.2-418 510.2h20.2z"/><path fill="#00303C" d="M3319.2 6347.6l-119.5-364.8 567.3 181.7z"/><path fill="#00181E" d="M3319.2 6347.6l447.8-183.1 179.1 183.1zm-600.8 0l481.3-364.8-328.4-290.8z"/><path fill="#00242D" d="M2718.4 6347.6h600.8l-119.5-364.8zm0 0l-210.8-1328.1 363.7 672.5z"/><path fill="#80BBB8" d="M5268.4 4456.1l-400.5-193.8-18.6 484.6z"/><path fill="#78B6B7" d="M5285.7 5085.8l-17.3-629.7-419.1 290.8z"/><path fill="#00303C" d="M5083.1 5514.3l-390.6-331.2 179.1 508.9z"/><path fill="#549DAC" d="M5083.1 5514.3l-233.8-767.4-156.8 436.2z"/><path fill="#4C95A7" d="M5083.1 5514.3l-233.8-767.4 436.4 338.9z"/><path fill="#00303C" d="M5306.9 6055.4l-223.8-541.1-211.5 177.7z"/><path fill="#00242D" d="M4714.1 6347.6l592.8-292.2-435.3-363.4z"/><path fill="#00181E" d="M4714.1 6347.6h701.1l-108.3-292.2z"/><path fill="#80BBB8" d="M5268.3 3874.6l-400.4 387.7 400.5 193.8z"/><path fill="#B1C5C4" d="M3369.5 3874.6l706-406.7-69.7 806.5z"/><path fill="#A0C2C1" d="M4075.5 3467.9l404.5 406.3-474.2 400.2z"/><path fill="#B1C5C4" d="M4867.9 4262.3l140.5-794.4-528.4 406.3z"/><path fill="#A0C2C1" d="M5268.3 3874.6l-259.9-406.7-140.5 794.4z"/><path fill="#B1C5C4" d="M6063.7 3874.2L5698 3467.9l-22.4 806.5z"/><path fill="#A0C2C1" d="M5268.3 3874.6l429.7-406.7-22.4 806.5zM6402.8 3496l138.6 778.4-477.7-400.2z"/><path fill="#B1C5C4" d="M6923.5 3937.4L6402.8 3496l138.6 778.4z"/><path fill="#00181E" d="M0 6347.6h10516.5v955.3H0zm10439.7 1633.1h10730.2V8936H10439.7z"/></svg>