<svg xmlns="http://www.w3.org/2000/svg" viewBox="0 0 658 217"><path fill="#727272" d="M231.8 63.8c-13 0-24.1 4.6-33.1 13.8-9.3 9.2-13.8 20.3-13.8 33.3 0 12.9 4.5 24 13.8 33 9.1 9.2 20.2 13.8 33.1 13.8 12.9 0 24-4.7 33.1-13.8 9.2-9.1 13.7-20.2 13.7-33 0-13-4.5-24.1-13.7-33.3-9.1-9.1-20.2-13.8-33.1-13.8zm30 77c-8.3 8.2-18.4 12.3-30 12.3-11.7 0-21.7-4.1-29.9-12.3-8.3-8.2-12.5-18.3-12.5-29.9 0-11.8 4.1-21.7 12.5-30 8.1-8.3 18.2-12.5 29.9-12.5 11.6 0 21.6 4.1 30 12.5 8.2 8.2 12.2 18.2 12.2 30 0 11.6-4 21.6-12.2 29.9zm-30-67.6c-10.3 0-19.3 3.6-26.7 11-7.4 7.4-11 16.3-11 26.7 0 10.3 3.6 19.2 11 26.6 7.4 7.4 16.4 11.1 26.7 11.1 10.5 0 19.2-3.7 26.6-11.1 7.4-7.4 11.1-16.3 11.1-26.6 0-10.4-3.7-19.3-11.1-26.7-7.4-7.4-16.1-11-26.6-11zm32.9 39.3c-.3 9.2-4 16.8-10.8 22.9-6.9 6.1-14.8 9-23.9 8.4-9.2-.5-16.8-4.1-22.9-10.8-6-6.9-8.9-14.8-8.4-24 .5-9.1 4.1-16.7 11-22.8 6.6-6.1 14.7-8.9 23.9-8.5 9 .4 16.6 4.1 22.7 10.9 6.1 6.9 9 14.8 8.4 23.9zM283.5 89c-2.8-6.9-6.9-12.8-11.9-17.9-5.3-5.2-11.2-9.2-17.9-12-6.9-3-14.3-4.4-21.9-4.4-7.7 0-14.9 1.5-22 4.4-6.7 2.9-12.7 6.9-17.8 12-5.2 5.2-9.1 11.1-11.9 17.9-3.1 6.9-4.4 14.1-4.4 21.8 0 7.6 1.4 14.9 4.4 21.9 2.9 6.6 6.8 12.7 11.9 17.8 5.2 5.2 11.2 9.2 17.8 12 7.1 3 14.3 4.4 22 4.4 7.6 0 15-1.5 21.9-4.4 6.7-2.9 12.7-6.9 17.9-12 5.1-5.2 9.2-11.2 11.9-17.8 3.1-7 4.5-14.3 4.5-21.9.1-7.6-1.4-14.9-4.5-21.8zm-4.2 41.9c-2.6 6.1-6.3 11.6-11.1 16.4-4.7 4.7-10.1 8.4-16.4 11.1-6.3 2.6-13 4-20.1 4-7 0-13.7-1.4-20.1-4-6.2-2.6-11.6-6.3-16.5-11.1-4.6-4.8-8.4-10.2-11-16.4-2.8-6.4-4-13.1-4-20.1 0-7.1 1.3-13.7 4-20.2 2.5-6.1 6.3-11.6 11-16.4 4.9-4.8 10.2-8.4 16.5-11.1 6.3-2.7 13.1-4 20.1-4 7.1 0 13.7 1.3 20.1 4 6.2 2.6 11.6 6.3 16.4 11.1 4.7 4.8 8.4 10.2 11.1 16.4 2.7 6.4 4.1 13.1 4.1 20.2s-1.3 13.7-4.1 20.1z"/><path fill="#989898" d="M207.6 123.8c.8 1.5 1.7 2.9 2.7 4.2V93.7c-4 4.9-6 10.7-6 17.1.1 4.8 1.1 9.2 3.3 13zm8.9 9.8l.1.1c1.9 1.2 3.9 2.3 6 3V84.9c-2.2.8-4.2 1.8-6.1 3.1v45.6zm12.4-50.1v54.6c.9.2 2 .2 3 .2s2.1 0 3-.2V83.5c-1-.1-2-.2-3.1-.2-.9.1-1.9.1-2.9.2zm12.3 53.2c2.2-.7 4.1-1.8 6-3l.1-.1V88.1c-1.9-1.3-4-2.4-6.1-3.1v51.7zm12.3-43v34.2c1.1-1.3 2-2.7 2.7-4.1 2.1-3.9 3.1-8.3 3.1-13 0-6.4-1.9-12.1-5.8-17.1z"/><path d="M348.2 121.5h-3.3V138h-10.7V83.5h14c11.2 0 21.6 7.8 21.6 19s-10.4 19-21.6 19zm.3-28.5H345v19h3.5c5.8 0 10.4-4.1 10.4-9.5s-4.6-9.5-10.4-9.5zm41.6 19.5V138h-10.4v-23.9c0-6-2.2-10.2-6.9-13.8l8.7-5.4c2.5 2.1 4.3 4.6 5.3 6.6 1-1 6.7-6.7 13.2-6.5l2 10.5c-6.7 0-11.1 5.8-11.9 7zM426 130c4 0 7.5-2.1 9.3-4.2l5.9 5.8c-2.4 2.9-7.4 7.5-16.1 7.5-12.5 0-18.7-10.6-18.7-22.1 0-11.8 8-22.1 19.8-22.1 8.3 0 15.4 4.8 15.4 12.2 0 10.2-10.7 15.3-24.6 15.1 1.2 5.1 4.2 7.8 9 7.8zm6.2-22.1c0-2.5-2.3-4.3-5.8-4.3-5.2 0-8.9 4.4-9.8 10.6 11.1-.5 15.6-2.9 15.6-6.3zm30.4 20.7h16.9v9.4h-33.1l17.4-32.4h-16v-9.4H480l-17.4 32.4zm31.3-39c-3.5 0-6.2-2.8-6.2-6.2 0-3.4 2.7-6.2 6.2-6.2 3.4 0 6.2 2.7 6.2 6.2 0 3.4-2.8 6.2-6.2 6.2zm-5.2 48.4V96.2h10.4V138h-10.4z" fill="#727272"/><path fill="#989898" d="M219.4 32.5c-2.7.4-5.4 1-8.1 1.7l4.4 16.3c2.1-.6 4.2-1 6.4-1.4l-2.7-16.6zm-39.9 44.4l-14.2-9.2c-1.5 2.3-2.9 4.7-4.2 7.2l15 7.7c1.1-2 2.2-3.9 3.4-5.7m24-40.1c-2.6 1-5.1 2.1-7.6 3.4l7.7 15c1.9-1 3.9-1.9 5.9-2.6l-6-15.8zm-5.6 21.7l-9.2-14.2c-2.3 1.5-4.6 3.1-6.7 4.9l10.6 13.1c1.7-1.3 3.4-2.6 5.3-3.8m-10.2 8.2l-12-11.8c-1.9 1.9-3.8 4-5.5 6.1l13.2 10.6c1.4-1.8 2.8-3.4 4.3-4.9m83.4-4.4l10.7-13c-2.2-1.8-4.5-3.4-6.9-5l-9.1 14.2c1.9 1.2 3.6 2.5 5.3 3.8m-3.2-22.1c-2.4-1.2-4.9-2.4-7.5-3.4l-6.1 15.7c2.1.8 4.1 1.7 6 2.7l7.6-15zm12.5 31.4l13.1-10.7c-1.7-2.1-3.6-4.2-5.5-6.1l-12 11.9c1.5 1.5 3 3.2 4.4 4.9m7.1 10.9l15-7.7c-1.3-2.5-2.6-4.8-4.1-7.1l-14.1 9.2c1.1 1.8 2.2 3.7 3.2 5.6m4.7 12.1l16.3-4.3c-.7-2.7-1.6-5.4-2.6-8l-15.7 6.1c.7 2.1 1.4 4.1 2 6.2m-39.8-60.4c-2.7-.7-5.4-1.3-8.1-1.7l-2.6 16.7c2.2.3 4.3.8 6.5 1.4l4.2-16.4zM236 31.7c-2.7-.1-5.5-.1-8.3 0l.9 16.8c2.2-.1 4.4-.1 6.5 0l.9-16.8zm-64.4 95.4l-16.3 4.3c.7 2.7 1.6 5.3 2.5 7.8l15.8-6c-.8-2-1.4-4-2-6.1m121.9-6.4l16.7 2.6c.4-2.7.7-5.5.9-8.3l-16.8-.9c-.2 2.2-.4 4.4-.8 6.6m-3.3 12.5l15.8 6.1c1-2.6 1.9-5.3 2.6-8l-16.3-4.3c-.7 2.1-1.4 4.2-2.1 6.2m20-34.8l-16.7 2.6c.3 2.1.6 4.3.7 6.5v.1l16.8-.9v-.1c-.1-2.7-.4-5.5-.8-8.2m-26 46.4l14.2 9.2c1.5-2.3 2.9-4.7 4.2-7.2l-15.1-7.6c-1 1.9-2.1 3.8-3.3 5.6M276 155l11.9 11.9c2-2 3.8-4 5.6-6.2l-13.2-10.6c-1.3 1.8-2.8 3.4-4.3 4.9m-10.1 8.2l9.1 14.2c2.3-1.5 4.6-3.2 6.7-4.9L271 159.4c-1.6 1.3-3.3 2.6-5.1 3.8m-92.3-74.7l-15.8-6c-1 2.5-1.8 5.2-2.5 7.8l16.3 4.4c.5-2.1 1.2-4.2 2-6.2m9.7 61.6l-13.1 10.6c1.8 2.2 3.6 4.2 5.6 6.2l12-11.9c-1.6-1.6-3.1-3.2-4.5-4.9m-7.1-10.9l-15 7.7c1.2 2.4 2.6 4.8 4.1 7.1l14.2-9.1c-1.2-1.9-2.3-3.8-3.3-5.7m-6.7-25l-16.8.9c.2 2.8.4 5.5.8 8.1l16.7-2.6c-.3-2.1-.5-4.3-.7-6.4m23.1 45.2l-10.7 13.1c2.2 1.7 4.4 3.4 6.7 4.9l9.3-14.1c-1.8-1.3-3.6-2.6-5.3-3.9M170.2 101l-16.7-2.6c-.4 2.7-.7 5.5-.9 8.2l16.8.9c.2-2.2.5-4.3.8-6.5m84.1 68.1l6 15.8c2.6-1 5.2-2.1 7.7-3.4l-7.7-15c-2 .9-4 1.8-6 2.6m-58.4 12.4c2.5 1.3 5 2.4 7.6 3.4l6-15.8c-2-.8-4-1.7-5.9-2.6l-7.7 15zm31.7 8.5c2.8.1 5.6.1 8.4 0l-.9-16.8c-2.2.1-4.4.1-6.5 0l-1 16.8zm14-17.5l2.6 16.7c2.7-.4 5.4-1 8.1-1.7l-4.3-16.3c-2.1.5-4.2 1-6.4 1.3m-30.3 15c2.6.7 5.3 1.3 8.1 1.7l2.7-16.7c-2.2-.3-4.3-.8-6.4-1.4l-4.4 16.4z"/></svg>