<svg xmlns="http://www.w3.org/2000/svg" viewBox="0 0 658 217"><path d="M348.8 88.8H337v27.3c0 7-2.9 12.6-11.4 12.6-8.4.1-10.8-5.7-10.8-13v-27H303v29.9c0 8.7 3.1 21 19.3 21.1 8.9.1 13.3-4.2 15.4-8.1v6.6h11.1V88.8zm4.7 49.5h11.8V111c0-6.9 2.9-12.5 11.3-12.6 8.3 0 10.7 5.7 10.7 13.1v26.9h11.8v-29.8c0-8.7-3.1-21.1-19.2-21.2-8.8-.1-13.3 4.2-15.4 8.1.1-2.3.1-4.4.1-6.6h-11.1v49.4zm50.1-56.2h11.8V71.6h-11.8v10.5zm0 56.2h11.8V88.8h-11.8v49.5zm24.2 0h11.8V97.9h8.5l-3.5-9.1h-5V71.6h-11.8v17.2h-8.2v9.1h8.2v40.4zm31.7 17.3h12.6l26.1-66.8h-12.6l-11.9 32.9-12.1-32.9H449l18.7 47.6-8.2 19.2zM280 100.5l-13.2-48.9-49.1 13.1-7.3 12.8-14.7-.1-35.9 35.8 35.9 35.8 14.7-.1 7.3 12.8 49.1 13.1 13.2-48.9-7.5-12.7 7.5-12.7zm-30.7-30.6l-21.6 37.2h-43.1l27.1-27.6 37.6-9.6zm-21.6 49.3l21.6 37.2-37.5-9.6-27.1-27.6h43zm10.5-6.1l21.6-37.2 10.4 37.2-10.4 37.2-21.6-37.2z" fill="#101519"/></svg>