<svg xmlns="http://www.w3.org/2000/svg" viewBox="0 0 658 217"><linearGradient id="a" gradientUnits="userSpaceOnUse" x1="81.178" y1="73.445" x2="81.178" y2="143.928"><stop offset="0" stop-color="#828282"/><stop offset=".967" stop-color="#686868"/></linearGradient><path fill-rule="evenodd" clip-rule="evenodd" fill="url(#a)" d="M123.2 149V72.7H80.4c-22.8 0-41.3 17.1-41.3 38.2s18.5 38.2 41.3 38.2h13.1v-16.6h-13c-13.3 0-24-9.3-24-21.6S67 89.3 80.3 89.3h26.6V149h16.3z"/><linearGradient id="b" gradientUnits="userSpaceOnUse" x1="177.793" y1="73.445" x2="177.793" y2="143.928"><stop offset="0" stop-color="#828282"/><stop offset="1" stop-color="#686868"/></linearGradient><path fill-rule="evenodd" clip-rule="evenodd" fill="url(#b)" d="M177.8 69.8c-21.9 0-39.6 15.1-39.6 37.9V149h16.1v-42.2c0-14.7 12.6-23.2 23.5-23.2s23.3 8.5 23.3 23.2V149h16.3v-41.3c0-22.9-17.7-37.9-39.6-37.9z"/><linearGradient id="c" gradientUnits="userSpaceOnUse" x1="270.173" y1="73.445" x2="270.173" y2="143.928"><stop offset="0" stop-color="#828282"/><stop offset=".99" stop-color="#686868"/></linearGradient><path fill-rule="evenodd" clip-rule="evenodd" fill="url(#c)" d="M306.6 110.3c0-22-14.5-37.7-36.4-37.7h-36.3v16.6h37.2c14.1 0 19.9 9.9 19.9 20.9 0 11-6 22.3-20.1 22.3h-37.2v16.4H270c21.9 0 36.6-16.5 36.6-38.5z"/><linearGradient id="d" gradientUnits="userSpaceOnUse" x1="570.62" y1="73.445" x2="570.62" y2="143.928"><stop offset="0" stop-color="#828282"/><stop offset=".987" stop-color="#686868"/></linearGradient><path fill-rule="evenodd" clip-rule="evenodd" fill="url(#d)" d="M607.1 110.3c0-22-14.5-37.7-36.4-37.7h-36.3v16.6h37.2c14.1 0 19.9 9.9 19.9 20.9 0 11-6 22.3-20.1 22.3h-37.2v16.4h36.3c21.8 0 36.6-16.5 36.6-38.5z"/><linearGradient id="e" gradientUnits="userSpaceOnUse" x1="357.778" y1="73.445" x2="357.778" y2="143.928"><stop offset="0" stop-color="#828282"/><stop offset="1" stop-color="#686868"/></linearGradient><path fill-rule="evenodd" clip-rule="evenodd" fill="url(#e)" d="M382 123.2c7-3.8 10.5-10.9 10.5-22.9 0-21.2-11.2-27.7-33.1-27.7h-36.3v16.6h37.2c14.1 0 16.6 4.5 16.6 10.9s-2 11.8-16.1 11.8h-37.2v15.2h37.3c7.2.8 12.8 6.9 12.8 14.4 0 2.4.4 4.6-.6 6.6 0 .3 1 .6 1 .8h15c0 .1 2.7-16.2-7.1-25.7z"/><linearGradient id="f" gradientUnits="userSpaceOnUse" x1="445.22" y1="73.445" x2="445.22" y2="143.928"><stop offset="0" stop-color="#828282"/><stop offset="1" stop-color="#686868"/></linearGradient><path fill-rule="evenodd" clip-rule="evenodd" fill="url(#f)" d="M445.2 70.4c-20.8 0-37.7 17.6-37.7 39.3 0 21.7 16.9 39.3 37.7 39.3 20.8 0 37.7-17.6 37.7-39.3 0-21.7-16.9-39.3-37.7-39.3zm0 62.9c-12.5 0-22.6-10.5-22.6-23.5s10.1-23.5 22.6-23.5c12.5 0 22.6 10.5 22.6 23.5 0 12.9-10.1 23.5-22.6 23.5z"/><linearGradient id="g" gradientUnits="userSpaceOnUse" x1="509.549" y1="73.445" x2="509.549" y2="143.928"><stop offset="0" stop-color="#828282"/><stop offset="1" stop-color="#686868"/></linearGradient><path fill-rule="evenodd" clip-rule="evenodd" fill="url(#g)" d="M501.3 72.7h16.5V149h-16.5z"/><g fill-rule="evenodd" clip-rule="evenodd" fill="#686868"><path d="M39.8 111.4c0-21.1 18.5-38.2 41.3-38.2h42.1v-.5H80.4c-22.8 0-41.3 17.1-41.3 38.2 0 12.1 6.1 22.8 15.6 29.8-9.1-7-14.9-17.6-14.9-29.3zm67-21.6h.7V149h-.7z"/><path d="M65.6 127.9c4.2 3.2 9.6 5.1 15.6 5.1h12.4v-.5H80.5c-5.7-.1-10.8-1.8-14.9-4.6zM201.8 149v-41.7c0-8.5-4.1-14.9-9.7-18.8 5.2 3.9 9 10.2 9 18.3V149h.7z"/><path d="M138.9 108.2c0-22.8 17.7-37.9 39.6-37.9 9.4 0 17.9 2.8 24.7 7.7-6.9-5.3-15.7-8.2-25.4-8.2-21.9 0-39.6 15.1-39.6 37.9V149h.7v-40.8zm95.7-35h36.3c8.1 0 15.2 2.2 21 6-5.8-4.2-13.2-6.5-21.7-6.5h-36.3v16.6h.7V73.2zm-.2 59.7h37.2c14.1 0 20.1-11.3 20.1-22.3 0-7.1-2.4-13.7-7.9-17.5 5 3.9 7.2 10.2 7.2 17 0 11-6 22.3-20.1 22.3h-37.2v16.4h.7v-15.9zm300.4 0H572c14.1 0 20.1-11.3 20.1-22.3 0-7.1-2.4-13.7-7.9-17.5 5 3.9 7.2 10.2 7.2 17 0 11-6 22.3-20.1 22.3h-37.2v16.4h.7v-15.9zm.3-59.7h36.3c8.1 0 15.2 2.2 21 6-5.9-4.2-13.2-6.5-21.7-6.5h-36.3v16.6h.7V73.2zm-210.9 39.3h37.2c14.1 0 16.1-5.5 16.1-11.8 0-3.4-.8-6.3-3.6-8.2 2.3 1.9 2.9 4.6 2.9 7.7 0 6.4-2 11.8-16.1 11.8h-37.2v15.2h.7v-14.7zm-.4-39.3h36.3c10.6 0 18.7 1.6 24.2 5.6-5.5-4.4-13.9-6.1-24.9-6.1h-36.3v16.6h.7V73.2zm50.2 75.7c0 .1.1.1 0 0l.1.1-.1-.1zm-.2-.2c1-2 .6-4.2.6-6.6 0-4.9-2.5-9.3-6.2-11.9 3.4 2.6 5.5 6.7 5.5 11.4 0 2.4.4 4.6-.6 6.6 0 .2.4.3.7.5zm94.7-38.4c0-8.2-4.1-15.5-10.2-19.7 5.8 4.3 9.5 11.3 9.5 19.2 0 13-10.1 23.5-22.6 23.5-4.6 0-8.8-1.4-12.3-3.8 3.7 2.7 8.2 4.4 13 4.4 12.5-.1 22.6-10.6 22.6-23.6z"/><path d="M408.2 110.3c0-21.7 16.9-39.3 37.7-39.3 7.7 0 14.8 2.4 20.8 6.5-6.1-4.4-13.5-7-21.5-7-20.8 0-37.7 17.6-37.7 39.3 0 13.7 6.7 25.7 16.9 32.8-9.8-7.2-16.2-19-16.2-32.3zM502 73.2h15.8v-.5h-16.5V149h.7z"/></g></svg>