<svg xmlns="http://www.w3.org/2000/svg" viewBox="0 0 658 217"><path d="M342.2 43.6c6.2-7.7 10.7-18.4 9.6-29.1-9.3.3-20.3 6.1-26.9 13.9-5.9 6.7-11.1 17.8-9.6 28.2 10 .6 20.4-5.2 26.9-13zm26.8 84.7H242.8h126v-.3c-2.9-5.8-4.2-14.9-3.1-22.3v-.3c1.2-9.6 7.4-19.5 12.3-23.1.1 0 .1-.1.2-.1 1.1-1.2 4.2-3.7 6.4-5.3C376.8 65.4 364 59.2 351 59c-13.2-1.1-26.8 8.3-34.2 8.1-7.1.2-17.9-8.3-29.2-7.8h-.1c-.3 0-2.3.1-2.3.1-15.1.4-28.4 9.2-36 22.7-3 4.8-6.6 16.1-7.1 23.3v.4c-.7 4.5 0 16.6.8 22.4v.3c.6 5.8 3.6 17 5.8 22.5v.1c2.1 6.1 8 17.4 11.9 23.2 7.7 11.1 16.8 23.5 28.8 23 11.6-.4 15.8-7.7 29.8-7.6 13.9-.1 17.8 7.2 30 7.3 12.4-.5 20.2-11.6 27.9-22.7 3.8-5.7 9.7-16.7 11.8-23.2.2-.7.6-1.8.8-2.5-8.3-2.4-17.5-13.2-20.7-20.3z" fill-rule="evenodd" clip-rule="evenodd" fill="#5E5E5E"/></svg>