<svg xmlns="http://www.w3.org/2000/svg" viewBox="0 0 658 217"><path fill="#9D9D9D" d="M403.4 62.3c-5.9 2.6-12.2 4.4-18.8 5.2 6.8-4.1 12-10.5 14.4-18.1-6.3 3.8-13.4 6.5-20.8 8-6-6.4-14.5-10.4-23.9-10.4-18.1 0-32.8 14.7-32.8 32.8 0 2.6.3 5.1.8 7.5-27.3-1.4-51.4-14.4-67.6-34.3-2.8 4.8-4.4 10.5-4.4 16.5 0 11.4 5.8 21.4 14.6 27.3-5.4-.2-10.4-1.6-14.9-4.1v.4c0 15.9 11.3 29.1 26.3 32.2-2.8.7-5.6 1.2-8.6 1.2-2.1 0-4.2-.2-6.2-.6 4.2 13 16.3 22.5 30.6 22.8-11.2 8.8-25.4 14-40.7 14-2.6 0-5.3-.2-7.8-.5 14.5 9.3 31.7 14.7 50.3 14.7 60.3 0 93.3-50 93.3-93.3 0-1.4 0-2.8-.1-4.2 6.4-4.8 11.9-10.6 16.3-17.1z"/></svg>