<svg xmlns="http://www.w3.org/2000/svg" viewBox="0 0 658 217"><path d="M145.8 41.7h-21.3c0 28.9-.1 47.6-.1 76.5C115.3 90 106.2 71.3 97 41.7H76.6v135.5c6.9-1 14.3-1.9 21.2-2.8 0-28.3 0-45.7.1-74 9.5 27.9 15.3 44.3 24.8 70.8 7.4-.8 15.6-1.9 23-2.6 0-42.4 0-84.7.1-126.9m79.4 0h-58.9c-.1 41.7-.2 83.3-.2 125 19.7-1.8 39.4-3.3 59.1-4.4v-20.9c-12.8.8-25.1 1.6-37.9 2.5 0-11.2 0-20.5.1-31.7 9.3-.2 19.2 0 28.8-.2V91c-9.5.2-19.4.2-28.8.4 0-11.2 0-17.3.1-28.5 5.9-.1 11.6-.1 17.3-.1h20.5c0-6.3-.1-15.1-.1-21.1m79.3.1h-65.6v20.8h2.8c2.8 0 5.7 0 8.5.1 2.8 0 5.7.1 8.5.1h2.2c0 33.6-.1 64.3-.1 97.8 6.9-.3 14.4-.5 21.3-.7 0-33.4.1-63.9.1-97.3 7.3 0 14.9-.1 22.2-.1.1-5.9.1-14.8.1-20.7m72.9-.1h-59.1v117.6h6.9c4.7 0 9.5 0 14.1.1v-48.5h20.2c2.9 0 5.7 0 8.5.1V90.2h-28.8V62.8h38.1c.2-6.1.2-15.2.1-21.1m13.8.1c.1 39.6-.1 79.2-.1 118.8 18.9.7 38.8 1.5 57.6 2.8v-20.9c-11.9-.7-24.4-1.5-36.3-2-.1-33.9.1-64.7.1-98.6-6.9-.1-14.3-.1-21.3-.1m75 0c.1 40.9.2 81.9.2 122.8 6.9.5 14.1 1.1 21 1.7 0-41.5.1-83 0-124.6-6.8.1-14.2.1-21.2.1m39.5 0c8.5 20.7 16.3 41.5 24.9 63.4-9 21.1-18.1 42.1-27.1 62.4 7.4.7 15.1 1.8 22.5 2.6 5.3-13 10.2-23.1 15.5-36.5 5.3 14.3 10.1 25.3 15.5 40 7.4 1 17 2.3 24.4 3.4-9-24-18.8-48.9-27.8-71.6 9-21.3 18.1-41.6 27.5-63.8h-23.2c-5.8 13.7-9.7 22.6-15.2 35.7-5.1-13.6-8.6-22.4-13.7-35.7-7.7.1-15.6.1-23.3.1" fill="#777"/></svg>