<svg xmlns="http://www.w3.org/2000/svg" viewBox="0 0 658 217"><g fill-rule="evenodd" clip-rule="evenodd"><path fill="#060606" d="M263 110.2h-22.8v2.6h6.5v59.1s.9 8.9-6.5 8.9-6.6-12.3-6.6-13.5V46.4s.4-10.1 5.7-10.1c5.1 0 11.8 13.8 14.1 40.4v4.5h2.6V35h-2.6v3.9c-.3.2-.8.4-1.3.4-1.1 0-5.7-5.5-12.4-5.5s-16.3 3.4-16.3 17.1v110.4s-1.5 22 16.8 22c0 0 5.5.4 11.5-4.6 0 0 3.4-1.6 3.4 3.4h2.8v-69.2h5.2v-2.7h-.1zm83.5 69.1L330.8 36.2h-9.3s-14.2 135.9-14.2 137.5c0 1.4-.9 5.1-5.6 5.7h-1.5v.1h-.1.1v2.5h16.2v-2.6h-1.2c-2.2-.1-5.1-1.6-5.1-5.9l5.3-51.3h13.7l6.1 57.2h-5.8v2.6h22.8v-2.6h-5.7v-.1z"/><path fill="#FFF" d="M315.7 119.1l6.6-61.6 6.6 61.6h-13.2z"/><path fill="#060606" d="M412.1 36.1h-22.7v2.6h5.7v140.7h-5.3v2.6h24.9v-2.6h-8.3v-56.9h9.9c13.9 0 14.4-13.1 14.4-13.1V50.8c0-14.6-18.6-14.7-18.6-14.7z"/><path fill="#FFF" d="M419.9 111.3c0 8-5.9 8.1-5.9 8.1h-7.6V38.9h5.7c6.8 0 7.8 9.2 7.8 9.2v63.2z"/></g></svg>