<svg xmlns="http://www.w3.org/2000/svg" viewBox="0 0 658 217"><path d="M39.1 57.8h22.2v80.9h41.2v20.5H39.1zm73.2 32.7h21.4v68.7h-21.4V90.5zM123 56.3c6.8 0 12.4 5.5 12.4 12.4 0 6.8-5.5 12.4-12.4 12.4-6.8 0-12.4-5.5-12.4-12.4s5.5-12.4 12.4-12.4m99.9 1.5h21.3v60.6l24.2-28h26.2l-28 31.8 27.4 37h-26.8l-22.7-34h-.3v34h-21.3zm-77.5 32.7h20.5v9.4h.3c2.8-5.4 9.8-11.1 20.2-11.1 21.6 0 25.6 14.2 25.6 32.7v37.7h-21.4v-33.4c0-8-.1-18.2-11.1-18.2-11.1 0-12.8 8.7-12.8 17.6v34h-21.4V90.5z"/><path d="M339.5 116.8c.1-7.1-5.4-13.1-13.1-13.1-9.4 0-14.5 6.4-15.1 13.1h28.2zm18.1 30.5c-6.8 8.7-18.1 13.7-29.2 13.7-21.3 0-38.4-14.2-38.4-36.3 0-22.1 17.1-36.3 38.4-36.3 19.9 0 32.5 14.2 32.5 36.3v6.7h-49.5c1.7 8.1 7.8 13.4 16.1 13.4 7 0 11.7-3.6 15.2-8.4l14.9 10.9zm47.7-40.2c-10.7 0-17.1 7.1-17.1 17.5s6.4 17.5 17.1 17.5c10.7 0 17.1-7.1 17.1-17.5s-6.4-17.5-17.1-17.5m36.8 52.1h-19.6v-9.1h-.3c-3.3 5-11.5 10.8-21.2 10.8-20.5 0-34-14.8-34-35.7 0-19.2 12-36.9 31.6-36.9 8.8 0 17.1 2.4 21.9 9.1h.3V57.8h21.4v101.4z"/><path fill="#5B5B5B" d="M596.8 36.5H474c-5.9 0-10.6 4.6-10.6 10.4v123.2c0 5.7 4.8 10.4 10.6 10.4h122.7c5.9 0 10.7-4.7 10.7-10.4V46.9c0-5.8-4.8-10.4-10.6-10.4z"/><path fill="#FFF" d="M484.8 90.5h21.4v68.7h-21.4V90.5zm10.6-34.2c6.8 0 12.4 5.5 12.4 12.4 0 6.8-5.5 12.4-12.4 12.4-6.8 0-12.4-5.5-12.4-12.4.1-6.8 5.6-12.4 12.4-12.4m24.1 34.2H540v9.4h.3c2.9-5.4 9.8-11.1 20.2-11.1 21.6 0 25.6 14.2 25.6 32.7v37.7h-21.3v-33.4c0-8-.1-18.2-11.1-18.2-11.1 0-12.8 8.7-12.8 17.6v34h-21.3V90.5z"/><path d="M610.9 151.5h2.5v7.7h1.4v-7.7h2.4v-1.4h-6.3zm15.1-1.4l-2.7 6.7-2.6-6.7h-1.9v9.1h1.3v-6.9l2.8 6.9h.9l2.7-6.9v6.9h1.4v-9.1z" fill="#5B5B5B"/></svg>