<svg xmlns="http://www.w3.org/2000/svg" viewBox="0 0 658 217"><path fill="#5C5C5C" d="M401.4 92.6c2.7 2.2 8.2 6.8 8.2 15.6 0 8.5-4.8 12.6-9.7 16.4-1.5 1.5-3.2 3.1-3.2 5.7 0 2.5 1.7 3.9 3 5l4.2 3.2c5.1 4.3 9.7 8.2 9.7 16.1 0 10.8-10.5 21.8-30.3 21.8-16.7 0-24.8-8-24.8-16.5 0-4.2 2.1-10 8.9-14.1 7.1-4.4 16.8-5 22-5.3-1.6-2.1-3.5-4.3-3.5-7.8 0-2 .6-3.1 1.2-4.5-1.3.1-2.5.2-3.7.2-12.2 0-19.1-9.1-19.1-18.1 0-5.3 2.4-11.2 7.4-15.4 6.6-5.4 14.4-6.3 20.6-6.3H416l-7.4 4.1h-7.2zm-8.2 51.2c-.9-.1-1.5-.1-2.6-.1-1 0-7.3.2-12.1 1.8-2.5.9-9.9 3.7-9.9 11.9s8 14.1 20.3 14.1c11.1 0 16.9-5.3 16.9-12.5-.1-5.8-3.9-8.9-12.6-15.2zm3.3-21.9c2.7-2.7 2.9-6.3 2.9-8.4 0-8.3-5-21.2-14.5-21.2-3 0-6.2 1.5-8.1 3.8-2 2.4-2.5 5.5-2.5 8.5 0 7.7 4.5 20.5 14.4 20.5 2.9.1 6-1.3 7.8-3.2z"/><path fill="#909090" d="M328.8 142c-18.3 0-28.1-14.3-28.1-27.2 0-15.1 12.3-28 29.8-28 16.9 0 27.5 13.2 27.5 27.2 0 13.6-10.5 28-29.2 28zm14.4-9.3c2.8-3.7 3.5-8.3 3.5-12.8 0-10.1-4.8-29.5-19.1-29.5-3.8 0-7.6 1.5-10.4 3.9-4.5 4-5.3 9.1-5.3 14 0 11.4 5.6 30.1 19.6 30.1 4.4.1 9-2.1 11.7-5.7z"/><path fill="#707070" d="M266.4 142c-18.3 0-28.1-14.3-28.1-27.2 0-15.1 12.3-28 29.8-28 16.9 0 27.5 13.2 27.5 27.2 0 13.6-10.4 28-29.2 28zm14.4-9.3c2.8-3.7 3.5-8.3 3.5-12.8 0-10.1-4.8-29.5-19.1-29.5-3.8 0-7.6 1.5-10.4 3.9-4.5 4-5.3 9.1-5.3 14 0 11.4 5.6 30.1 19.6 30.1 4.4.1 9-2.1 11.7-5.7z"/><path fill="#5C5C5C" d="M229.5 140.2L213 144c-6.7 1-12.7 2-19.1 2-31.9 0-44.1-23.5-44.1-41.9 0-22.4 17.2-43.3 46.8-43.3 6.2 0 12.3.9 17.7 2.4 8.7 2.4 12.7 5.4 15.3 7.2l-9.6 9.1-4 .9 2.9-4.6C214.8 72 207.6 65 194 65c-18.3 0-32.1 13.9-32.1 34.1 0 21.8 15.7 42.2 41 42.2 7.4 0 11.2-1.5 14.7-2.9v-18.6l-17.5.9 9.3-5h24.5l-3 2.9c-.8.7-.9.9-1.2 1.8-.1 1-.2 4.4-.2 5.6v14.2z"/><path fill="#636363" d="M437.9 136.9c-3.8-.3-4.6-1-4.6-5.6V65.8c0-.3 0-.5.1-.7.5-4 1.6-4.7 5.2-6.8H422l-8.7 4.2h8.8v71.3c0 2.3-.5 2.7-3.1 6.1h20.5l4.3-2.5c-1.9-.2-3.9-.3-5.9-.5z"/><path fill="#707070" d="M485 137.9c-1.3.7-2.5 1.5-3.8 2.1-3.8 1.7-7.7 2.2-11.2 2.2-3.7 0-9.4-.2-15.3-4.5-8.2-5.7-11.7-15.6-11.7-24.3 0-17.8 14.5-26.5 26.3-26.5 4.1 0 8.4 1 11.8 3.2 5.7 3.8 7.2 8.7 8 11.4l-27 10.9-8.9.7c2.9 14.6 12.8 23.1 23.7 23.1 5.9 0 10.1-2.1 14-4l-5.9 5.7zm-10.8-34.2c2.2-.8 3.3-1.5 3.3-3.1 0-4.6-5.2-9.9-11.4-9.9-4.6 0-13.2 3.6-13.2 16 0 2 .2 4 .3 6.1l21-9.1z"/><path d="M496.1 87.7v7.6h-.9v-7.6h-2.5v-.8h5.9v.8h-2.5zm10.3 7.6v-7.7l-2.3 7.7h-.7l-2.4-7.7v7.7h-.8v-8.4h1.4l2.1 6.8 2.1-6.8h1.5v8.4h-.9z" fill="#878787"/></svg>