<svg xmlns="http://www.w3.org/2000/svg" viewBox="0 0 658 217"><path fill="#FFF" d="M279.6 107.3c6.4-21 12.8-41.9 19.2-62.8 4 13.5 8 27.1 12 40.6 1 2.9 1.6 5.9 2.7 8.7 3.9-12.9 7.7-25.9 11.6-38.9 1.1-3.4 1.9-6.9 3.1-10.2 6.4 20.8 12.8 41.7 19.1 62.6h-3.5c-1.2-5.1-2.8-10.3-5-15.1-1.4-2.8-3.1-5.6-5.8-7.3-2.6-1.7-6.1-2.1-8.8-.6-1.6.8-2.8 2.1-3.9 3.3-3.1 3.5-4.8 7.9-6.8 12-2-3.8-3.5-8-6.3-11.4-1.6-2-3.5-3.9-6-4.6-2.8-.8-5.9.1-8.2 1.9-2.4 1.9-4 4.7-5.3 7.4-2.1 4.6-3.4 9.4-4.7 14.3-1.1.1-2.3.1-3.4.1z"/><path fill="#8A8A8A" d="M309.2 31.9c10.1-.8 20.5 1.4 29.3 6.5 9.8 5.6 17.6 14.6 21.8 25.1 5.1 12.8 4.7 27.8-1.3 40.3-3.6 7.6-9.1 14.3-15.9 19.2-8.6 6.3-19.3 9.8-29.9 9.6-10.9 0-21.7-3.7-30.3-10.3-9-6.8-15.5-16.7-18.3-27.6-2.7-10.6-1.9-22.2 2.4-32.3 4-9.5 11-17.6 19.7-23.1 6.8-4.1 14.6-6.7 22.5-7.4m-29.6 75.4c1.1 0 2.3 0 3.4.1 1.3-4.8 2.7-9.7 4.7-14.3 1.3-2.8 2.9-5.5 5.3-7.4 2.3-1.8 5.3-2.7 8.2-1.9 2.5.7 4.4 2.7 6 4.6 2.8 3.4 4.3 7.5 6.3 11.4 2-4.1 3.7-8.5 6.8-12 1.2-1.3 2.4-2.6 3.9-3.3 2.7-1.5 6.2-1.1 8.8.6 2.7 1.7 4.5 4.5 5.8 7.3 2.3 4.8 3.8 9.9 5 15.1h3.5c-6.3-20.9-12.7-41.7-19.1-62.6-1.2 3.3-2.1 6.8-3.1 10.2-3.9 13-7.6 25.9-11.6 38.9-1.2-2.8-1.8-5.8-2.7-8.7-4-13.5-8-27.1-12-40.6-6.4 20.7-12.8 41.6-19.2 62.6z"/><path d="M287.4 148.3h3.8c.1 3.2 0 6.3 0 9.4h5.4c-.3 1.1-.6 2.2-1 3.3h-4.4v16.8c0 .8.2 1.9 1.1 2.2 1.2.4 2.5.2 3.7.3v3.2c-2.2 0-4.6.4-6.6-.8-1.4-.8-2-2.6-2-4.1v-17.5H282l.9-3.3h4.5v-9.5zm95.9 0h3.9V183h-3.9v-34.7zm-161.9 9.1c2.4-.4 5-.2 7.1 1.1 1.1.6 1.8 1.6 2.5 2.6 1.8-1.8 4-3.4 6.6-3.7 2.7-.3 5.7 0 7.7 2 1.8 1.7 2.5 4.3 2.5 6.8v16.9h-3.9v-16.9c.1-2.1-1.2-4.3-3.2-4.9-3.1-1.1-6.5.7-8.5 3.1-.2.8 0 1.7-.1 2.5v16.2h-3.8v-15.8c0-1.6-.2-3.4-1.3-4.7-1-1.1-2.5-1.6-4-1.6-2.4.1-4.7 1.4-6.2 3.2-.2 6.3 0 12.6-.1 18.9h-3.9v-25.2c1.3-.1 2.6-.1 3.9 0v1.9c1.4-1.1 2.9-2.1 4.7-2.4zm43.7-.2c3.6-.5 7.5.5 10.3 3 4.7 3.9 5.7 11.2 3 16.5-1.6 3.2-4.6 5.6-8 6.4-4.8 1.3-10.3-.2-13.4-4.1-4.1-4.9-4-12.7.1-17.5 1.9-2.3 4.8-3.9 8-4.3m0 3.6c-1.4.2-2.7.8-3.8 1.7-4.6 3.6-4.7 11.4-.5 15.3 3.2 3 8.6 3 11.8.1 4.2-3.7 4.3-11.1.2-15-2-1.9-5-2.6-7.7-2.1zm45.5-3.4c3.8-.8 7.9 0 11 2.4 4.8 3.6 6.1 10.6 3.8 16-1.3 3.1-3.9 5.6-7 6.8-4.9 2-11.1.7-14.6-3.3-4.3-4.9-4.4-13-.1-17.9 1.8-2 4.2-3.4 6.9-4m1 3.4c-1.3.3-2.6.9-3.7 1.7-4.6 3.8-4.6 11.9.1 15.7 3.2 2.6 8.4 2.5 11.5-.4 4.2-3.8 4.2-11.3-.1-15.1-2.2-1.8-5.1-2.4-7.8-1.9zm51-3.6c3.9-.5 8 .7 10.8 3.5 3.6 3.4 4.6 8.8 3.4 13.5-.9 3.2-3.1 6.1-6.1 7.7-5 2.8-11.8 2-15.7-2.2-4.6-4.6-4.9-12.5-1-17.7 2-2.6 5.2-4.4 8.6-4.8m0 3.6c-1.4.2-2.7.8-3.8 1.7-4.7 3.7-4.8 11.9-.1 15.7 3.2 2.7 8.4 2.6 11.5-.2 4.2-3.8 4.3-11.3.1-15.1-2.1-1.9-5-2.6-7.7-2.1zm-25.9.2c2.7-3.7 8.1-4.7 12.1-2.8-.3 1.2-.6 2.5-1 3.7-2-.7-4.3-1.2-6.3-.2-2.6 1.1-5 3.5-4.8 6.5V183h-3.9v-25.3h3.9v3.3zm59.7-3.3h8.8c2.5 0 5.1.7 6.8 2.7 1.6 1.7 2.2 4.1 2.2 6.4V183h-3.9v-3.1c-3.5 4.1-10.4 5-14.7 1.6-3.9-3-4.2-9.7-.3-12.9 1.9-1.5 4.3-2.1 6.7-2.1h8.3c-.1-1.3-.1-2.6-.9-3.7-.8-1.2-2.3-1.7-3.6-1.7-2.8-.1-5.7 0-8.5-.1-.2-1.1-.6-2.1-.9-3.3m.8 14.5c-1.4 2.3-.8 5.6 1.5 7.1 2.8 1.8 6.8 1.1 9.1-1.3 2.1-2 2.8-5 2.7-7.8h-8.2c-2 0-4 .4-5.1 2z" fill="#585858"/></svg>