<svg xmlns="http://www.w3.org/2000/svg" viewBox="0 0 658 217"><path fill="#707070" d="M604.2 83.6c3.7 0 6.7-3 6.7-6.6 0-3.6-3-6.6-6.7-6.6s-6.7 3-6.7 6.6c0 3.6 3 6.6 6.7 6.6m-5.1-6.6c0-3 2.4-5.2 5-5.2 3 0 5.4 2.2 5.4 5.2 0 2.7-2.4 5.2-5.4 5.2-2.6 0-5-2.5-5-5.2m5.1-.6c.3 0 1 0 1.3-.5v-.5c0-.5-.3-.8-.7-1.1h-1.6v2.2h1zm-.7-3.2h2c1.3.6 1.3 1.6 1.3 2.2v.5c0 .3-.3.8-1 1.4h-.3l2 3.3h-1.7l-1.7-3h-1v3h-1.3v-7.4h1.7zm-323.8 48.6h36.2l-19.1-30.7-34.8 55.3h-16.1l42.5-66.6c1.7-2.7 5-4.1 8.4-4.1 3.4 0 6.4 1.4 8.4 4.1l42.6 66.6h-16.1l-7.4-12.3h-36.5l-8.1-12.3zm165.5 12.3V76.3h-13.7v63.6c0 1.6 1 3.3 2 4.7 1.3 1.4 3.4 1.9 5 1.9h61.6l8-12.3h-62.9zm-223.4-10.4c13.1 0 23.8-10.4 23.8-23.6 0-13.2-10.7-23.8-23.8-23.8h-59v70.2h13.4V88.6h44.6c6.4 0 11.4 5.2 11.4 11.5s-5 11.2-11.4 11.2h-37.9l40.2 35.1h19.4l-27.1-22.7h6.4zm-142 22.7c-19.4 0-35.2-15.6-35.2-35.1s15.7-35.1 35.2-35.1h40.5c19.4 0 35.2 15.6 35.2 35.1s-15.7 35.1-35.2 35.1H79.8zm39.8-12.3c12.4 0 22.8-10.1 22.8-22.8 0-12.6-10.4-22.8-22.8-22.8H80.4c-12.4 0-22.8 10.1-22.8 22.8 0 12.6 10.4 22.8 22.8 22.8h39.2zm256.3 12.3c-19.4 0-35.2-15.6-35.2-35.1s15.7-35.1 35.2-35.1h48.6l-8 12.3H377c-12.7 0-22.8 10.1-22.8 22.8 0 12.6 10.1 22.8 22.8 22.8h48.6l-8 12.3h-41.7zM541 134.1c-10.4 0-19.1-6.9-21.8-16.4h57.6l8-12.3h-65.7c2.7-9.6 11.4-16.7 21.8-16.7h39.5l8-12.3H540c-19.4 0-34.8 15.6-34.8 35.1s15.4 35.1 34.8 35.1h41.9l7.7-12.3H541z"/></svg>